<svg width="580" height="580" viewBox="0 0 580 580" fill="none" xmlns="http://www.w3.org/2000/svg">
<rect width="580" height="580" rx="290" fill="url(#paint0_linear_756_53)"/>
<path d="M465 361L290.2 188.1L115.5 362.8L115.3 362.6C96.3001 343.6 96.2001 312.7 115.2 293.6L290.2 117L465 291.9C484.1 310.9 484.1 341.9 465 361Z" fill="white"/>
<path d="M394 442.9L288.5 337.4L182.9 442.9C173.4 433.3 168.6 420.8 168.6 408.3C168.6 395.8 173.4 383.3 182.9 373.7L288.5 268.1L394.1 373.7C413.1 392.9 413.1 423.8 394 442.9Z" fill="white"/>
<defs>
<linearGradient id="paint0_linear_756_53" x1="0" y1="290" x2="580" y2="290" gradientUnits="userSpaceOnUse">
<stop stop-color="#41E195"/>
<stop offset="1" stop-color="#00C3ED"/>
</linearGradient>
</defs>
</svg>
